#tb 0: 1/44100
#media_type 0: audio
#codec_id 0: pcm_s16le
#sample_rate 0: 44100
#channel_layout_name 0: stereo
0,          0,          0,     4096,    16384, 0x9eb7203c
0,       4096,       4096,     4096,    16384, 0x051a1e50
0,       8192,       8192,     4096,    16384, 0xfb151e84
0,      12288,      12288,     4096,    16384, 0xbd041210
0,      16384,      16384,     4096,    16384, 0x23c91518
0,      20480,      20480,     4096,    16384, 0xe45c1d10
0,      24576,      24576,     4096,    16384, 0xe4081edc
0,      28672,      28672,     4096,    16384, 0x4d0f2140
0,      32768,      32768,     4096,    16384, 0x9eb7203c
0,      36864,      36864,     4096,    16384, 0x051a1e50
0,      40960,      40960,     4096,    16384, 0x16d3f171
0,      45056,      45056,     4096,    16384, 0x7b1e05fe
0,      49152,      49152,     4096,    16384, 0x17292896
0,      53248,      53248,     4096,    16384, 0xdfe137ae
0,      57344,      57344,     4096,    16384, 0x26c16d5e
0,      61440,      61440,     4096,    16384, 0xb8691740
0,      65536,      65536,     4096,    16384, 0x685d32e8
0,      69632,      69632,     4096,    16384, 0x603140de
0,      73728,      73728,     4096,    16384, 0x4f8451ae
0,      77824,      77824,     4096,    16384, 0xcc541022
